<svg width="40" height="40" viewBox="0 0 40 40" fill="none" xmlns="http://www.w3.org/2000/svg">
<path d="M17.1875 9.1875V10.4375C17.1875 11.8125 18.3125 12.9375 19.6875 12.9375C21.0625 12.9375 22.1875 11.8125 22.1875 10.4375V9.1875C22.1875 7.8125 21.0625 6.6875 19.6875 6.6875C18.3125 6.6875 17.1875 7.8125 17.1875 9.1875ZM18.4375 9.1875C18.4375 8.5 19 7.9375 19.6875 7.9375C20.375 7.9375 20.9375 8.5 20.9375 9.1875V10.4375C20.9375 11.125 20.375 11.6875 19.6875 11.6875C19 11.6875 18.4375 11.125 18.4375 10.4375V9.1875ZM27.6875 28.3125C27.4375 28.5625 27.5 28.9375 27.75 29.1875L28.9375 30.1875C29.0625 30.3125 29.5 30.4375 29.8125 30.125C30.0625 29.875 30 29.5 29.75 29.25L28.5625 28.25C28.3125 28 27.9375 28.0625 27.6875 28.3125Z" fill="#FD3D0C"/>
<path d="M38.75 38.125H38C38.25 37.375 38.0625 36.625 37.4375 36.125L31.5 30.875C31.25 30.625 30.875 30.625 30.625 30.9375C30.375 31.1875 30.4375 31.5625 30.6875 31.8125L36.625 37.0625C36.9375 37.3125 36.875 37.625 36.8125 37.75C36.4375 38.25 36 38.125 35.9375 38.0625L20 27.75C19.8125 27.625 19.625 27.625 19.4375 27.6875L13.1875 30.1875C12.9375 30.3125 12.8125 30.5 12.8125 30.75V37.3125C12.8125 37.75 12.4375 38.125 12 38.125C11.625 38.125 11.3125 37.875 11.25 37.5625L9.5 29.6875C9.3125 29.0625 9.625 28.3125 10.25 28L15.8125 25.25H23.4375L25.875 27.4375C26 27.5625 26.4375 27.75 26.75 27.375C27 27.125 26.9375 26.75 26.6875 26.5L24.125 24.25L25.3125 17.5625L28.4375 9.75C28.875 8.875 28.75 7.75 28.125 7L23.375 1.3125C22.8125 0.625001 21.8125 0.375001 20.9375 0.812501C20.375 1.0625 19.25 2.375 20.25 3.875L23.9375 8.5L21.75 14H17.625L15.4375 8.5L19.125 3.875C20 2.3125 19 1.125 18.4375 0.812501C17.625 0.375001 16.625 0.625001 16 1.3125L11.25 7C10.625 7.75 10.5 8.875 10.875 9.75L14.0625 17.625L14.3125 19C14.375 19.3125 14.6875 19.5625 15.0625 19.5C15.375 19.4375 15.625 19.125 15.5625 18.75L15.3125 17.25L12.0625 9.1875C11.8125 8.75 11.875 8.1875 12.25 7.8125L17 2.125C17.25 1.875 17.625 1.75 17.9375 1.9375C18.0625 2.0625 18.5625 2.5 18.125 3.0625L14.1875 7.9375C14.0625 8.125 14 8.375 14.125 8.5625L16.625 14.8125C16.75 15.0625 16.9375 15.1875 17.1875 15.1875H22.1875C22.4375 15.1875 22.6875 15.0625 22.75 14.8125L25.25 8.5625C25.3125 8.375 25.3125 8.125 25.1875 7.9375L21.25 3.0625C21.125 2.875 20.875 2.375 21.5 1.9375C21.8125 1.75 22.1875 1.875 22.4375 2.125L27.1875 7.8125C27.5 8.1875 27.5625 8.75 27.3125 9.25L24.125 17.25L22.9375 24.125H16.5L15.9375 21.0625C15.875 20.75 15.5625 20.5 15.1875 20.5625C14.875 20.625 14.625 20.9375 14.6875 21.3125L15.1875 24.3125L9.625 27.0625C8.4375 27.625 7.875 28.9375 8.25 30.1875C8.25 30.1875 10.0625 38.1875 10.0625 38.25H8.75C8.375 38.25 8.125 38.5 8.125 38.875C8.125 39.25 8.375 39.5 8.75 39.5H26.25C26.625 39.5 26.875 39.25 26.875 38.875C26.875 38.5 26.625 38.25 26.25 38.25H13.875C14 38 14.0625 37.75 14.0625 37.4375V31.3125L19.625 29.125L33.75 38.125H28.75C28.375 38.125 28.125 38.375 28.125 38.75C28.125 39.125 28.375 39.375 28.75 39.375H38.75C39.125 39.375 39.375 39.125 39.375 38.75C39.375 38.375 39.125 38.125 38.75 38.125ZM6.25 38.125H1.25C0.875 38.125 0.625 38.375 0.625 38.75C0.625 39.125 0.875 39.375 1.25 39.375H6.25C6.625 39.375 6.875 39.125 6.875 38.75C6.875 38.375 6.625 38.125 6.25 38.125Z" fill="#FD3D0C"/>
</svg>
