<svg width="40" height="40" viewBox="0 0 40 40" fill="none" xmlns="http://www.w3.org/2000/svg">
<path d="M36.875 30.625H36.25V30C36.2495 29.5029 36.0518 29.0262 35.7003 28.6747C35.3488 28.3232 34.8721 28.1255 34.375 28.125H33.6613C33.5088 27.5375 33.1474 27.0256 32.6448 26.6853C32.1422 26.345 31.5327 26.1995 30.9306 26.2762C30.3284 26.3528 29.7749 26.6462 29.3735 27.1016C28.9721 27.557 28.7504 28.143 28.75 28.75V30.625H27.5V6.875C27.499 6.04651 27.1694 5.25223 26.5836 4.66639C25.9978 4.08055 25.2035 3.751 24.375 3.75H19.9375C19.7925 3.04458 19.4088 2.41072 18.8509 1.95531C18.293 1.4999 17.5952 1.25079 16.875 1.25H12.5C11.7794 1.24903 11.0806 1.49749 10.5224 1.9532C9.96414 2.40891 9.58082 3.04377 9.4375 3.75H4.375C3.5465 3.751 2.75222 4.08055 2.16639 4.66639C1.58055 5.25223 1.25099 6.04651 1.25 6.875V35.625C1.25099 36.4535 1.58055 37.2478 2.16639 37.8336C2.75222 38.4195 3.5465 38.749 4.375 38.75H24.375C25.2035 38.749 25.9978 38.4195 26.5836 37.8336C27.1694 37.2478 27.499 36.4535 27.5 35.625V34.375H28.75V36.25C28.7492 36.8577 28.9703 37.4448 29.3717 37.9011C29.7731 38.3573 30.3272 38.6514 30.93 38.7281C31.5329 38.8049 32.143 38.6589 32.6458 38.3177C33.1487 37.9765 33.5098 37.4635 33.6613 36.875H34.375C34.8721 36.8745 35.3488 36.6768 35.7003 36.3253C36.0518 35.9738 36.2495 35.4971 36.25 35V34.375H36.875C37.3723 34.375 37.8492 34.1775 38.2008 33.8258C38.5525 33.4742 38.75 32.9973 38.75 32.5C38.75 32.0027 38.5525 31.5258 38.2008 31.1742C37.8492 30.8225 37.3723 30.625 36.875 30.625ZM24.375 5C24.8721 5.0005 25.3488 5.1982 25.7003 5.54973C26.0518 5.90125 26.2495 6.37787 26.25 6.875V30.625H25V8.125C24.9995 7.62787 24.8018 7.15125 24.4503 6.79973C24.0988 6.4482 23.6221 6.2505 23.125 6.25H22.4962C22.4884 5.80899 22.3645 5.37783 22.1369 5H24.375ZM7.88375 5.375C8.00158 5.25513 8.1423 5.16017 8.29755 5.09575C8.4528 5.03133 8.61942 4.99877 8.7875 5H10C10.1658 5 10.3247 4.93415 10.4419 4.81694C10.5592 4.69973 10.625 4.54076 10.625 4.375C10.6246 4.12866 10.6728 3.88466 10.7669 3.65698C10.861 3.42931 10.9991 3.22245 11.1733 3.04826C11.3474 2.87407 11.5543 2.73597 11.782 2.64189C12.0097 2.54781 12.2537 2.49959 12.5 2.5H16.875C17.3721 2.5005 17.8488 2.6982 18.2003 3.04973C18.5518 3.40125 18.7495 3.87787 18.75 4.375C18.75 4.54076 18.8158 4.69973 18.9331 4.81694C19.0503 4.93415 19.2092 5 19.375 5H19.9625C20.3039 5.00033 20.6312 5.13609 20.8725 5.37747C21.1139 5.61885 21.2497 5.94614 21.25 6.2875C21.2508 6.42307 21.229 6.55781 21.1856 6.68625C21.101 6.94414 20.9373 7.16882 20.7177 7.32836C20.4982 7.48791 20.2339 7.57421 19.9625 7.575H8.7875C8.51451 7.57366 8.24895 7.486 8.0288 7.32457C7.80866 7.16314 7.64522 6.93621 7.56187 6.67625C7.52001 6.55095 7.49911 6.41961 7.5 6.2875C7.49926 6.11741 7.53287 5.94891 7.59881 5.79212C7.66475 5.63532 7.76167 5.49345 7.88375 5.375ZM4.375 37.5C3.87787 37.4995 3.40125 37.3018 3.04972 36.9503C2.6982 36.5988 2.5005 36.1221 2.5 35.625V6.875C2.5005 6.37787 2.6982 5.90125 3.04972 5.54973C3.40125 5.1982 3.87787 5.0005 4.375 5H6.61188C6.3842 5.37773 6.26063 5.80902 6.25375 6.25H5.625C5.12787 6.2505 4.65125 6.4482 4.29972 6.79973C3.9482 7.15125 3.7505 7.62787 3.75 8.125V34.375C3.7505 34.8721 3.9482 35.3488 4.29972 35.7003C4.65125 36.0518 5.12787 36.2495 5.625 36.25H12.9925C13.1655 36.4462 13.3782 36.6033 13.6166 36.7111C13.8549 36.8188 14.1134 36.8747 14.375 36.875H15.0888C15.146 37.0942 15.2331 37.3045 15.3475 37.5H4.375ZM12.5 33.125H11.875C11.7092 33.125 11.5503 33.0592 11.4331 32.9419C11.3158 32.8247 11.25 32.6658 11.25 32.5C11.25 32.3342 11.3158 32.1753 11.4331 32.0581C11.5503 31.9408 11.7092 31.875 11.875 31.875H12.5V33.125ZM13.75 35V30C13.75 29.8342 13.8158 29.6753 13.9331 29.5581C14.0503 29.4408 14.2092 29.375 14.375 29.375H15V35.625H14.375C14.2095 35.6242 14.051 35.5581 13.934 35.441C13.8169 35.324 13.7508 35.1655 13.75 35ZM18.75 36.25C18.75 36.5815 18.6183 36.8995 18.3839 37.1339C18.1495 37.3683 17.8315 37.5 17.5 37.5C17.1685 37.5 16.8505 37.3683 16.6161 37.1339C16.3817 36.8995 16.25 36.5815 16.25 36.25V28.75C16.25 28.4185 16.3817 28.1005 16.6161 27.8661C16.8505 27.6317 17.1685 27.5 17.5 27.5C17.8315 27.5 18.1495 27.6317 18.3839 27.8661C18.6183 28.1005 18.75 28.4185 18.75 28.75V36.25ZM17.5 26.25C16.9473 26.2516 16.4107 26.4366 15.9743 26.7759C15.538 27.1152 15.2265 27.5897 15.0888 28.125H14.375C13.8779 28.1255 13.4012 28.3232 13.0497 28.6747C12.6982 29.0262 12.5005 29.5029 12.5 30V30.625H11.875C11.3777 30.625 10.9008 30.8225 10.5492 31.1742C10.1975 31.5258 10 32.0027 10 32.5C10 32.9973 10.1975 33.4742 10.5492 33.8258C10.9008 34.1775 11.3777 34.375 11.875 34.375H12.5V35H5.625C5.45924 35 5.30027 34.9342 5.18306 34.8169C5.06585 34.6997 5 34.5408 5 34.375V8.125C5 7.95924 5.06585 7.80027 5.18306 7.68306C5.30027 7.56585 5.45924 7.5 5.625 7.5H6.5625C6.77861 7.90166 7.09974 8.23708 7.49162 8.47044C7.8835 8.70381 8.3314 8.82636 8.7875 8.825H19.9625C20.4189 8.82663 20.8672 8.70421 21.2594 8.47084C21.6516 8.23746 21.9731 7.90189 22.1894 7.5H23.125C23.2908 7.5 23.4497 7.56585 23.5669 7.68306C23.6842 7.80027 23.75 7.95924 23.75 8.125V30.625H20V28.75C19.9992 28.0872 19.7355 27.4518 19.2669 26.9831C18.7982 26.5145 18.1628 26.2508 17.5 26.25ZM20 34.375H23.75C23.75 34.5408 23.6842 34.6997 23.5669 34.8169C23.4497 34.9342 23.2908 35 23.125 35H20V34.375ZM26.25 35.625C26.2495 36.1221 26.0518 36.5988 25.7003 36.9503C25.3488 37.3018 24.8721 37.4995 24.375 37.5H19.6525C19.8776 37.1217 19.9975 36.6902 20 36.25H23.125C23.6221 36.2495 24.0988 36.0518 24.4503 35.7003C24.8018 35.3488 24.9995 34.8721 25 34.375H26.25V35.625ZM28.75 33.125H20V31.875H28.75V33.125ZM32.5 36.25C32.5 36.5815 32.3683 36.8995 32.1339 37.1339C31.8995 37.3683 31.5815 37.5 31.25 37.5C30.9185 37.5 30.6005 37.3683 30.3661 37.1339C30.1317 36.8995 30 36.5815 30 36.25V28.75C30 28.4185 30.1317 28.1005 30.3661 27.8661C30.6005 27.6317 30.9185 27.5 31.25 27.5C31.5815 27.5 31.8995 27.6317 32.1339 27.8661C32.3683 28.1005 32.5 28.4185 32.5 28.75V36.25ZM35 35C35 35.1658 34.9342 35.3247 34.8169 35.4419C34.6997 35.5592 34.5408 35.625 34.375 35.625H33.75V29.375H34.375C34.5408 29.375 34.6997 29.4408 34.8169 29.5581C34.9342 29.6753 35 29.8342 35 30V35ZM36.875 33.125H36.25V31.875H36.875C37.0408 31.875 37.1997 31.9408 37.3169 32.0581C37.4342 32.1753 37.5 32.3342 37.5 32.5C37.5 32.6658 37.4342 32.8247 37.3169 32.9419C37.1997 33.0592 37.0408 33.125 36.875 33.125ZM10.375 12C10.4407 12.0492 10.4961 12.1109 10.538 12.1815C10.5798 12.2521 10.6074 12.3303 10.619 12.4116C10.6306 12.4929 10.6261 12.5756 10.6056 12.6551C10.5852 12.7347 10.5493 12.8094 10.5 12.875L8.625 15.375C8.57134 15.4467 8.50288 15.5061 8.42426 15.549C8.34565 15.5919 8.25872 15.6174 8.16938 15.6238C8.1546 15.6246 8.1398 15.625 8.125 15.625C8.04292 15.6251 7.96164 15.6089 7.88581 15.5775C7.80999 15.5461 7.74111 15.5 7.68313 15.4419L6.43313 14.1919C6.31928 14.074 6.25628 13.9161 6.2577 13.7523C6.25913 13.5884 6.32486 13.4316 6.44074 13.3157C6.55662 13.1999 6.71338 13.1341 6.87725 13.1327C7.04112 13.1313 7.199 13.1943 7.31687 13.3081L8.0575 14.0488L9.5 12.125C9.54925 12.0593 9.61094 12.004 9.68157 11.9622C9.75219 11.9204 9.83036 11.8929 9.91161 11.8813C9.99286 11.8697 10.0756 11.8742 10.1551 11.8946C10.2346 11.9149 10.3093 11.9508 10.375 12ZM11.875 20.625C11.875 20.4592 11.9408 20.3003 12.0581 20.1831C12.1753 20.0658 12.3342 20 12.5 20H21.875C22.0408 20 22.1997 20.0658 22.3169 20.1831C22.4342 20.3003 22.5 20.4592 22.5 20.625C22.5 20.7908 22.4342 20.9497 22.3169 21.0669C22.1997 21.1842 22.0408 21.25 21.875 21.25H12.5C12.3342 21.25 12.1753 21.1842 12.0581 21.0669C11.9408 20.9497 11.875 20.7908 11.875 20.625ZM10.375 22C10.4407 22.0492 10.4961 22.1109 10.538 22.1815C10.5798 22.2521 10.6074 22.3303 10.619 22.4116C10.6306 22.4929 10.6261 22.5756 10.6056 22.6551C10.5852 22.7347 10.5493 22.8094 10.5 22.875L8.625 25.375C8.57134 25.4467 8.50288 25.5061 8.42426 25.549C8.34565 25.5919 8.25872 25.6174 8.16938 25.6238C8.1546 25.6246 8.1398 25.625 8.125 25.625C8.04292 25.6251 7.96164 25.6089 7.88581 25.5775C7.80999 25.5461 7.74111 25.5 7.68313 25.4419L6.43313 24.1919C6.31928 24.074 6.25628 23.9161 6.2577 23.7523C6.25913 23.5884 6.32486 23.4316 6.44074 23.3157C6.55662 23.1999 6.71338 23.1341 6.87725 23.1327C7.04112 23.1313 7.199 23.1943 7.31687 23.3081L8.0575 24.0488L9.5 22.125C9.54919 22.0593 9.61087 22.0039 9.68149 21.962C9.75211 21.9202 9.8303 21.8926 9.91157 21.881C9.99285 21.8694 10.0756 21.8739 10.1551 21.8944C10.2347 21.9148 10.3094 21.9507 10.375 22ZM21.875 25H12.5C12.3342 25 12.1753 24.9342 12.0581 24.8169C11.9408 24.6997 11.875 24.5408 11.875 24.375C11.875 24.2092 11.9408 24.0503 12.0581 23.9331C12.1753 23.8158 12.3342 23.75 12.5 23.75H21.875C22.0408 23.75 22.1997 23.8158 22.3169 23.9331C22.4342 24.0503 22.5 24.2092 22.5 24.375C22.5 24.5408 22.4342 24.6997 22.3169 24.8169C22.1997 24.9342 22.0408 25 21.875 25ZM11.875 16.875C11.875 16.7092 11.9408 16.5503 12.0581 16.4331C12.1753 16.3158 12.3342 16.25 12.5 16.25H21.875C22.0408 16.25 22.1997 16.3158 22.3169 16.4331C22.4342 16.5503 22.5 16.7092 22.5 16.875C22.5 17.0408 22.4342 17.1997 22.3169 17.3169C22.1997 17.4342 22.0408 17.5 21.875 17.5H12.5C12.3342 17.5 12.1753 17.4342 12.0581 17.3169C11.9408 17.1997 11.875 17.0408 11.875 16.875ZM11.875 13.125C11.875 12.9592 11.9408 12.8003 12.0581 12.6831C12.1753 12.5658 12.3342 12.5 12.5 12.5H21.875C22.0408 12.5 22.1997 12.5658 22.3169 12.6831C22.4342 12.8003 22.5 12.9592 22.5 13.125C22.5 13.2908 22.4342 13.4497 22.3169 13.5669C22.1997 13.6842 22.0408 13.75 21.875 13.75H12.5C12.3342 13.75 12.1753 13.6842 12.0581 13.5669C11.9408 13.4497 11.875 13.2908 11.875 13.125ZM10.375 17C10.4407 17.0492 10.4961 17.1109 10.538 17.1815C10.5798 17.2521 10.6074 17.3303 10.619 17.4116C10.6306 17.4929 10.6261 17.5756 10.6056 17.6551C10.5852 17.7347 10.5493 17.8094 10.5 17.875L8.625 20.375C8.57128 20.4466 8.50279 20.5058 8.42418 20.5486C8.34557 20.5914 8.25867 20.6168 8.16938 20.6231C8.15461 20.6242 8.13981 20.6248 8.125 20.625C8.04292 20.6251 7.96164 20.6089 7.88581 20.5775C7.80999 20.5461 7.74111 20.5 7.68313 20.4419L6.43313 19.1919C6.31928 19.074 6.25628 18.9161 6.2577 18.7523C6.25913 18.5884 6.32486 18.4316 6.44074 18.3157C6.55662 18.1999 6.71338 18.1341 6.87725 18.1327C7.04112 18.1313 7.199 18.1943 7.31687 18.3081L8.0575 19.0488L9.5 17.125C9.54925 17.0593 9.61094 17.004 9.68157 16.9622C9.75219 16.9204 9.83036 16.8929 9.91161 16.8813C9.99286 16.8697 10.0756 16.8742 10.1551 16.8946C10.2346 16.9149 10.3093 16.9508 10.375 17Z" fill="#FD3D0C"/>
</svg>
