<svg width="38" height="40" viewBox="0 0 38 40" fill="none" xmlns="http://www.w3.org/2000/svg">
<path d="M36.8386 30.4977C36.3363 29.9956 35.6687 29.7191 34.9583 29.7191H34.8956C34.2175 29.7194 33.6162 30.0539 33.2474 30.5664L29.2894 26.6084L28.4839 20.5673C28.1288 17.9045 25.8352 15.8963 23.1469 15.8963C22.4085 15.8963 21.8079 16.497 21.8079 17.2354V18.6177C21.8079 20.1658 20.5483 21.4255 19.0001 21.4255C17.4519 21.4255 16.1922 20.1659 16.1922 18.6177V17.2354C16.1922 16.497 15.5915 15.8963 14.8513 15.8963C12.1648 15.8963 9.87123 17.9045 9.51631 20.5673L8.71076 26.6084L4.75373 30.5654C4.68912 30.4758 4.6174 30.3916 4.53928 30.3135C4.15584 29.9302 3.64623 29.7191 3.1035 29.7191H3.10311C1.60279 29.7195 0.382324 30.9403 0.382324 32.4405C0.382324 33.9139 1.55951 35.1167 3.02264 35.1598C2.65344 35.6773 2.45524 36.2973 2.45576 36.933C2.45584 38.6242 3.8317 40 5.52279 40H32.4775C34.1687 40 35.5444 38.6242 35.5444 36.933C35.5444 36.2727 35.334 35.6611 34.9776 35.16C36.4406 35.1173 37.6179 33.9097 37.6179 32.4304V32.3784C37.6179 31.6679 37.3412 31 36.8386 30.4977ZM24.5999 28.0555L24.8233 26.1565L25.03 27.1897C25.2148 28.1182 25.6711 28.971 26.3412 29.6398L30.5676 33.8661H25.7264L24.7123 29.8096C24.5686 29.2366 24.5305 28.6422 24.5999 28.0555ZM14.8533 17.1922C14.8771 17.1922 14.8965 17.2116 14.8965 17.2354V18.6177C14.8965 20.8804 16.7374 22.7213 19.0001 22.7213C21.2629 22.7213 23.1038 20.8804 23.1038 18.6177V17.2354C23.1039 17.2296 23.1051 17.2239 23.1074 17.2185C23.1097 17.2132 23.1131 17.2084 23.1173 17.2044C23.1214 17.2003 23.1264 17.1972 23.1318 17.1951C23.1372 17.193 23.143 17.192 23.1488 17.1922C23.6363 17.1922 24.1065 17.2802 24.5439 17.4404L23.3129 27.904C23.2249 28.6464 23.2731 29.3987 23.455 30.1238L24.3905 33.866H13.6097L14.5453 30.1238C14.7271 29.3987 14.7753 28.6464 14.6875 27.904L13.4565 17.4406C13.9038 17.2764 14.3767 17.1923 14.8533 17.1922ZM13.177 26.1564L13.4004 28.0554C13.4699 28.6421 13.4318 29.2365 13.2881 29.8096L12.274 33.8661H7.43264L11.659 29.6398C12.3291 28.971 12.7854 28.1182 12.9702 27.1897L13.177 26.1564ZM3.10381 33.8661C2.31779 33.8661 1.67834 33.2266 1.67834 32.4406C1.67834 31.6548 2.31764 31.0153 3.10389 31.0152C3.29998 31.0152 3.48436 31.0914 3.62303 31.2301C3.69147 31.2981 3.74573 31.379 3.78266 31.4682C3.81959 31.5574 3.83847 31.653 3.83818 31.7495C3.83817 31.8776 3.87617 32.0029 3.94737 32.1094C4.01857 32.216 4.11978 32.299 4.23818 32.348C4.35657 32.3971 4.48685 32.41 4.61255 32.385C4.73824 32.36 4.85369 32.2982 4.94428 32.2076L9.78232 27.3695C9.88295 27.269 9.94766 27.1381 9.96646 26.997L10.8009 20.7385C10.9401 19.6947 11.4722 18.7842 12.2347 18.1468L12.6875 21.9958L11.6996 26.9355C11.5648 27.613 11.2317 28.2353 10.7428 28.7234L5.60014 33.866H3.10381V33.8661ZM16.2787 38.7041H5.52279C4.54623 38.7041 3.7517 37.9097 3.7517 36.933C3.7517 35.9564 4.54615 35.162 5.52279 35.162H10.0584V35.4786C10.0584 36.4375 10.7122 37.2525 11.6482 37.4605L16.2787 38.4895V38.7041H16.2787ZM16.2787 37.162L11.9294 36.1954C11.7659 36.1599 11.6195 36.0693 11.5149 35.9388C11.4102 35.8083 11.3535 35.6458 11.3544 35.4785V35.162H16.2787V37.162ZM32.4775 38.7041H17.5747V35.162H32.4776C33.454 35.1621 34.2485 35.9566 34.2485 36.9331C34.2485 37.9096 33.454 38.7041 32.4775 38.7041ZM36.3219 32.4304C36.3219 33.222 35.683 33.8661 34.8978 33.8661H32.4003L27.2576 28.7234C26.7687 28.2353 26.4356 27.613 26.3008 26.9355L25.3128 21.9957L25.7656 18.1467C26.528 18.7841 27.0602 19.6947 27.1994 20.7386L28.0338 26.9971C28.0526 27.1381 28.1173 27.269 28.218 27.3696L33.056 32.2077C33.1466 32.2982 33.2621 32.3599 33.3878 32.3848C33.5134 32.4098 33.6437 32.3969 33.762 32.3479C33.8804 32.2989 33.9816 32.2159 34.0528 32.1094C34.124 32.0029 34.1621 31.8777 34.1622 31.7495C34.1622 31.3447 34.4915 31.0153 34.8964 31.0152H34.9587C35.3227 31.0152 35.6651 31.157 35.9226 31.4143C36.0496 31.5406 36.1503 31.6909 36.2189 31.8564C36.2874 32.0219 36.3225 32.1994 36.322 32.3785V32.4304H36.3219ZM21.6457 3.36102C21.696 3.15281 21.7215 2.93891 21.7215 2.72133C21.7215 1.22086 20.5007 0 19.0001 0C17.4996 0 16.2787 1.22086 16.2787 2.72141C16.2787 2.93914 16.3047 3.15289 16.3549 3.36086C14.2687 4.35367 12.8229 6.48172 12.8229 8.94172V9.57664C12.823 9.74781 12.8907 9.91202 13.0114 10.0334C13.132 10.1548 13.2958 10.2236 13.467 10.2246C13.5091 10.2245 13.7758 10.2245 14.2052 10.1968V11.0152C14.2052 13.6591 16.3562 15.8101 19.0001 15.8101C21.644 15.8101 23.7949 13.6591 23.7949 11.0152V10.2086C24.0295 10.2546 24.2744 10.2809 24.5293 10.2809C24.7011 10.2809 24.8659 10.2127 24.9875 10.0912C25.109 9.96963 25.1772 9.80482 25.1772 9.63297V8.9418C25.1772 6.48188 23.7316 4.35383 21.6457 3.36102ZM19.0001 1.29586C19.7862 1.29586 20.4256 1.93531 20.4256 2.72133C20.4256 2.79141 20.419 2.86031 20.4091 2.92859C19.9473 2.81988 19.4745 2.76482 19.0001 2.76453C18.5154 2.76453 18.0441 2.82242 17.5912 2.92852C17.5807 2.85994 17.5752 2.7907 17.5747 2.72133C17.5747 1.93539 18.2141 1.29586 19.0001 1.29586ZM22.499 11.0152C22.499 12.9445 20.9294 14.5141 19.0001 14.5141C17.0708 14.5141 15.5012 12.9445 15.5012 11.0152V10.0647C16.957 9.86445 18.9888 9.41328 20.9065 8.39555C21.239 8.77922 21.7837 9.31742 22.4991 9.7207L22.499 11.0152ZM21.6117 7.19852C21.5195 7.06109 21.3783 6.96413 21.2169 6.92751C21.0556 6.89089 20.8863 6.91739 20.7439 7.00156C18.2715 8.46258 15.3812 8.81602 14.119 8.90141C14.1409 6.22844 16.3221 4.06047 19.0001 4.06047C21.6775 4.06047 23.8583 6.22727 23.8812 8.89938C22.535 8.54555 21.6222 7.21398 21.6117 7.19852Z" fill="#FD3D0C"/>
</svg>
