<svg width="40" height="40" viewBox="0 0 40 40" fill="none" xmlns="http://www.w3.org/2000/svg">
<path d="M3.60678 32.1663H5.80303C5.80348 32.1663 5.80393 32.1662 5.80433 32.166C5.80473 32.1658 5.80507 32.1655 5.80533 32.1651C5.80559 32.1648 5.80576 32.1643 5.80582 32.1639C5.80588 32.1635 5.80584 32.163 5.80569 32.1626L4.44944 28.5136C4.42967 28.4602 4.40952 28.4076 4.38975 28.3558C4.22827 27.9332 4.04514 27.4542 4.25295 26.9975C4.37608 26.727 4.60803 26.5277 4.94233 26.4051L7.08506 25.6194C7.08764 25.6184 7.09022 25.6179 7.0928 25.617C7.09577 25.6159 7.0985 25.6145 7.10147 25.6136L10.5962 24.4483C10.6326 24.4367 10.6683 24.4229 10.7031 24.4071C10.7038 24.4068 10.7041 24.4063 10.7044 24.4056C10.7217 24.3474 10.7434 24.2343 10.7602 24.147L11.6164 19.7312V19.7301L10.9765 16.5066C10.9764 16.5062 10.9762 16.5059 10.976 16.5055C10.9758 16.5052 10.9755 16.505 10.9751 16.5048C10.9748 16.5046 10.9744 16.5044 10.974 16.5044C10.9736 16.5044 10.9732 16.5044 10.9728 16.5045L10.4643 16.6779C10.4637 16.6781 10.4632 16.6784 10.4629 16.6789C10.4626 16.6794 10.4624 16.68 10.4624 16.6805V19.0709C10.4624 20.2328 9.52467 21.1805 8.37366 21.1837H8.36272C7.80663 21.1837 7.2603 20.9573 6.86233 20.5614C6.46288 20.1641 6.2428 19.6394 6.2428 19.0842V15.1131C6.2428 15.1054 6.24295 15.0977 6.24327 15.0899C6.27741 14.228 6.85014 13.4602 7.66991 13.179L11.5855 11.8459C11.5861 11.8457 11.5866 11.8453 11.5869 11.8448L12.5483 10.4614C12.5486 10.4611 12.5487 10.4608 12.5488 10.4604C12.5489 10.4601 12.5489 10.4597 12.5488 10.4593C12.5487 10.459 12.5486 10.4586 12.5484 10.4583C12.5482 10.458 12.5479 10.4578 12.5476 10.4576C11.8194 9.96023 11.2494 9.23609 10.8498 8.29508C10.8443 8.28182 10.8393 8.26838 10.8348 8.25476C10.8342 8.25312 10.8333 8.25172 10.8328 8.25008L10.8315 8.24594L10.8303 8.24226C10.2762 6.5632 10.1939 5.02054 10.5928 3.78078C11.0211 2.44914 11.9854 1.48453 13.3808 0.991326C14.0433 0.756404 14.6899 0.761951 15.3747 0.767654C16.3461 0.775857 17.4485 0.785154 18.9037 0.0614042C19.0396 -0.00629235 19.1965 -0.0185331 19.3413 0.0272651C19.4861 0.0730633 19.6074 0.173318 19.6797 0.306873C20.365 1.57133 20.2126 2.75726 19.2785 3.64078C19.278 3.64122 19.2777 3.64181 19.2776 3.64246C19.2776 3.64311 19.2777 3.64376 19.2781 3.64429C19.8436 4.45367 20.1505 5.41523 20.1505 6.40984C20.1505 8.02679 19.2072 9.60328 17.7479 10.5109C17.7465 10.5116 17.7462 10.5134 17.747 10.5147L19.2445 12.8602C19.2448 12.8606 19.2451 12.8609 19.2455 12.8612C19.2459 12.8614 19.2464 12.8615 19.2469 12.8616L20.5008 12.8679C20.5012 12.8679 20.5017 12.8678 20.5021 12.8675C20.5025 12.8673 20.5028 12.867 20.5031 12.8666L21.9219 10.8054C22.5798 9.85039 23.8942 9.60758 24.8523 10.2643C25.3205 10.5863 25.6337 11.0734 25.7341 11.6359C25.833 12.1898 25.7107 12.7449 25.3899 13.199L23.1779 16.3309L23.1727 16.3381C22.5606 17.1773 22.0248 17.1791 21.2783 17.1815H19.504C19.5025 17.1815 19.5012 17.1827 19.5012 17.1843L19.4963 19.4822C19.4963 19.483 19.4966 19.4837 19.4972 19.4842L22.0094 21.9378L22.0098 21.9382C22.6219 22.5371 22.9323 23.2585 22.9323 24.0825V29.1045C22.9323 29.1057 22.933 29.1068 22.9343 29.1071C23.5015 29.2561 24.1823 29.6038 24.7354 30.1793C25.2701 30.7355 25.5915 31.4134 25.6837 32.1641C25.6837 32.1647 25.6841 32.1653 25.6846 32.1658C25.6851 32.1662 25.6857 32.1665 25.6864 32.1665H28.1545C28.1553 32.1665 28.156 32.1662 28.1565 32.1657C28.157 32.1651 28.1573 32.1644 28.1573 32.1637V31.922C28.1573 29.7711 29.7843 27.9937 31.8729 27.7513C31.8735 27.7512 31.8742 27.7509 31.8746 27.7504C31.8751 27.7499 31.8753 27.7493 31.8753 27.7486V17.1318C31.8753 17.1297 31.873 17.1283 31.8711 17.1294L30.7884 17.7436C30.451 17.9349 30.0778 18.0258 29.7069 18.0258C28.9648 18.0257 28.2317 17.6616 27.8133 17.0095C27.5001 16.5252 27.4023 15.9547 27.5376 15.403C27.673 14.8511 28.0239 14.3903 28.5257 14.1058L36.6876 9.47601C37.6983 8.90305 39.0338 9.23133 39.6654 10.2085C39.9783 10.694 40.0761 11.265 39.9404 11.8164C39.8048 12.3673 39.4541 12.8273 38.9526 13.1116L36.2948 14.6195C36.2944 14.6197 36.294 14.62 36.2938 14.6205C36.2935 14.6209 36.2934 14.6214 36.2934 14.6219V20.3787C36.2934 20.701 36.0451 20.9833 35.7229 20.9916C35.6447 20.9936 35.5668 20.98 35.494 20.9515C35.4211 20.923 35.3547 20.8802 35.2987 20.8256C35.2426 20.771 35.1981 20.7057 35.1676 20.6336C35.1372 20.5615 35.1216 20.4841 35.1216 20.4059V15.2899C35.1216 15.2878 35.1192 15.2864 35.1173 15.2875L33.0483 16.4613C33.0479 16.4616 33.0476 16.4619 33.0473 16.4623C33.0471 16.4628 33.0469 16.4633 33.0469 16.4637V27.7192C33.0469 27.7208 33.0482 27.722 33.0498 27.722H35.1188C35.1196 27.722 35.1203 27.7217 35.1208 27.7212C35.1213 27.7207 35.1216 27.72 35.1216 27.7192V23.3125C35.1216 22.9902 35.37 22.7079 35.6922 22.6996C35.7704 22.6976 35.8482 22.7112 35.9211 22.7397C35.9939 22.7682 36.0604 22.811 36.1164 22.8656C36.1724 22.9202 36.217 22.9855 36.2474 23.0575C36.2778 23.1296 36.2935 23.2071 36.2935 23.2853V27.7191C36.2935 27.7207 36.2948 27.722 36.2963 27.722H38.3122C39.0532 27.722 39.6539 28.3227 39.6539 29.0637V38.0331C39.6539 38.7737 39.0535 39.3741 38.313 39.3741H3.60678C1.61795 39.3741 6.29425e-05 37.7573 6.29425e-05 35.7702C6.29425e-05 33.783 1.61803 32.1663 3.60678 32.1663ZM21.2794 16.0095C21.9483 16.0074 21.9633 16.0073 22.2233 15.651L24.4328 12.5227C24.5714 12.3265 24.6239 12.0847 24.5805 11.8416C24.5357 11.5901 24.3964 11.3727 24.189 11.2302C23.7633 10.9383 23.179 11.046 22.8869 11.4698L21.346 13.7087C21.1433 14.0003 20.9176 14.0405 20.7011 14.0405L19.5107 14.0346C19.5091 14.0346 19.5079 14.0359 19.5079 14.0374L19.5037 16.0067C19.5037 16.0083 19.5049 16.0095 19.5065 16.0095H21.2794ZM38.8025 11.5364C38.8603 11.3013 38.817 11.0552 38.6808 10.8441C38.483 10.538 38.1266 10.3654 37.771 10.3654C37.5961 10.3654 37.4213 10.4072 37.2657 10.4954L29.1036 15.1251L29.1035 15.1252C28.8852 15.2489 28.7332 15.4467 28.6755 15.6822C28.6179 15.9173 28.661 16.1627 28.7983 16.3751C29.0915 16.8321 29.7382 16.9918 30.2101 16.7243L38.3745 12.0923C38.5929 11.9684 38.7448 11.7711 38.8025 11.5364ZM5.34092 27.5167C5.36608 27.6283 5.43506 27.8087 5.4842 27.9375C5.50538 27.993 5.52702 28.0495 5.54795 28.106L7.05647 32.1645C7.05668 32.1651 7.05704 32.1655 7.05752 32.1658C7.05799 32.1662 7.05855 32.1663 7.05913 32.1663H7.4096C7.46944 32.1663 7.59389 32.1663 7.74436 31.9475C8.14952 31.3582 8.16889 30.0956 8.05006 29.7773L8.0253 29.7154L8.02256 29.7084L6.94819 26.9205C6.94791 26.9199 6.94738 26.9193 6.94672 26.919C6.94605 26.9187 6.94529 26.9187 6.9446 26.9189L5.34795 27.5043L5.34092 27.5167ZM10.9665 25.5601L8.05686 26.5303C8.0565 26.5304 8.05617 26.5306 8.05589 26.5309C8.05561 26.5311 8.05538 26.5314 8.05522 26.5318C8.05506 26.5321 8.05497 26.5325 8.05496 26.5329C8.05494 26.5333 8.05501 26.5336 8.05514 26.534L8.29506 27.1566L8.91194 28.7575C8.9122 28.7582 8.91271 28.7587 8.91337 28.759C8.91402 28.7593 8.91477 28.7594 8.91545 28.7591L14.0873 26.9815C14.4386 26.8605 14.529 26.7377 14.6508 26.4882L15.6479 24.4242C15.6482 24.4236 15.6482 24.4229 15.648 24.4222C15.6478 24.4215 15.6474 24.421 15.6468 24.4206C14.7218 23.9186 13.3072 23.1234 12.4133 21.8019C12.413 21.8014 12.4125 21.801 12.412 21.8008C12.4115 21.8006 12.411 21.8006 12.4104 21.8007C12.4099 21.8008 12.4094 21.801 12.409 21.8014C12.4086 21.8018 12.4084 21.8023 12.4083 21.8029L11.9107 24.3693C11.8182 24.8508 11.7307 25.3056 10.9665 25.5601ZM12.3476 12.877C12.2676 12.877 12.1865 12.8874 12.1059 12.9089L12.0919 12.9125L12.0904 12.9129L12.083 12.9145C12.074 12.917 12.0648 12.9204 12.056 12.9235L12.0471 12.9266L8.04889 14.2878C7.68764 14.4118 7.43389 14.7479 7.41467 15.1262V19.0842C7.41467 19.3252 7.51202 19.5548 7.68874 19.7305C7.86866 19.9095 8.11389 20.0118 8.36397 20.0118H8.36889C8.8771 20.0104 9.29053 19.5883 9.29053 19.0709V16.526C9.29053 16.5073 9.28936 16.4896 9.28858 16.4732C9.26022 15.9312 9.58585 15.7385 9.78163 15.6722L12.6498 14.6947L12.6504 14.6945C12.886 14.6143 13.0767 14.4459 13.1874 14.2205C13.2976 13.9961 13.3144 13.7439 13.2342 13.5094C13.1029 13.1244 12.7389 12.877 12.3476 12.877ZM18.8656 1.36844C18.8655 1.36805 18.8653 1.36769 18.865 1.36738C18.8648 1.36708 18.8644 1.36683 18.8641 1.36665C18.8637 1.36648 18.8633 1.36638 18.8629 1.36636C18.8625 1.36635 18.8621 1.36641 18.8617 1.36656C17.4272 1.95664 16.2954 1.94734 15.3648 1.93929C14.761 1.93437 14.24 1.92992 13.7717 2.09586C11.718 2.82179 11.4008 4.59336 11.5519 6.08875C11.552 6.08928 11.5522 6.08978 11.5525 6.0902C11.5529 6.09062 11.5533 6.09093 11.5538 6.09109C11.5543 6.09126 11.5549 6.09127 11.5554 6.09113C11.5559 6.09099 11.5563 6.09071 11.5567 6.09031C11.7176 5.90936 11.9038 5.7527 12.1097 5.62523L12.1103 5.62469C12.7651 4.82711 13.6834 4.10258 14.893 4.01062C15.8807 3.93578 17.2496 3.64687 18.129 3.06039L18.1304 3.05953C18.8363 2.59156 19.0744 2.05711 18.8656 1.36844ZM18.9785 6.40969C18.9784 5.65854 18.7469 4.92566 18.3153 4.31086L18.3109 4.30976C17.0274 4.97492 15.4711 5.14203 14.9815 5.17914C13.3057 5.3064 12.3063 7.37703 12.025 8.04898C12.0248 8.04933 12.0248 8.04971 12.0248 8.05008C12.0248 8.05046 12.0249 8.05083 12.0251 8.05117C12.409 8.84906 12.9526 9.41617 13.6448 9.73898C14.1173 9.96125 14.6769 10.0739 15.308 10.0739C15.7504 10.0739 16.2213 9.96625 16.6692 9.76289C17.8187 9.23898 18.9785 7.99898 18.9785 6.40969ZM16.678 11.018C16.6777 11.0174 16.6772 11.017 16.6766 11.0168C16.676 11.0166 16.6754 11.0167 16.6748 11.0169C16.2212 11.1671 15.7565 11.2459 15.308 11.2459C14.6948 11.2459 14.1269 11.158 13.6133 10.9859C13.6128 10.9857 13.6122 10.9857 13.6116 10.9859C13.6111 10.9861 13.6106 10.9865 13.6102 10.987L13.0329 11.8178C13.0326 11.8182 13.0325 11.8186 13.0324 11.819C13.0324 11.8194 13.0324 11.8198 13.0325 11.8202C13.0326 11.8206 13.0329 11.821 13.0332 11.8213C13.0334 11.8216 13.0338 11.8218 13.0342 11.822C13.6301 12.0281 14.1269 12.4964 14.3431 13.1311C14.5244 13.6612 14.4876 14.2316 14.2391 14.7373C13.9903 15.2439 13.5602 15.6228 13.0279 15.804L12.097 16.1213C12.0964 16.1216 12.0958 16.122 12.0955 16.1226C12.0952 16.1232 12.095 16.1239 12.0951 16.1245L12.694 19.1413C12.6941 19.142 12.6944 19.1425 12.6949 19.143C12.6954 19.1434 12.6961 19.1436 12.6967 19.1436H18.3222C18.3229 19.1436 18.3236 19.1433 18.3242 19.1428C18.3247 19.1422 18.325 19.1415 18.325 19.1408L18.3368 13.6171C18.3368 13.6166 18.3366 13.616 18.3363 13.6156L16.678 11.018ZM21.7603 24.0823C21.7603 23.5787 21.5739 23.1512 21.1905 22.776L18.6719 20.3162C18.6717 20.3159 18.6714 20.3157 18.671 20.3156C18.6707 20.3155 18.6703 20.3154 18.67 20.3154H12.9651C12.9631 20.3154 12.9617 20.3174 12.9624 20.3192C13.5489 21.9515 15.2395 22.8673 16.2987 23.4412C16.4475 23.5217 16.588 23.5979 16.7043 23.6645L18.6102 24.7294C19.4041 25.1732 19.5497 25.4056 19.5264 26.1927C19.5236 26.2896 19.5203 26.3994 19.5203 26.5313L19.5094 29.0183C19.5094 29.0198 19.5107 29.0211 19.5123 29.0211H21.7574C21.7582 29.0211 21.7589 29.0208 21.7594 29.0203C21.7599 29.0197 21.7602 29.019 21.7602 29.0183V24.0823H21.7603ZM23.8904 30.9912C23.367 30.4466 22.6595 30.193 22.3462 30.193H19.5086C19.507 30.193 19.5058 30.1942 19.5058 30.1958L19.5015 32.1636C19.5015 32.1652 19.5027 32.1664 19.5043 32.1664H24.4969C24.4974 32.1664 24.4978 32.1663 24.4981 32.1661C24.4985 32.1659 24.4988 32.1657 24.4991 32.1654C24.4994 32.1651 24.4996 32.1647 24.4997 32.1643C24.4998 32.1639 24.4998 32.1635 24.4998 32.163C24.4184 31.721 24.2145 31.3285 23.8904 30.9912ZM38.4821 38.0324V29.0637C38.482 29.0187 38.464 28.9756 38.4322 28.9438C38.4004 28.912 38.3573 28.894 38.3123 28.8939H32.3606C30.689 28.8939 29.3291 30.2523 29.3291 31.922V38.1996C29.3291 38.2012 29.3304 38.2024 29.3319 38.2024H38.3122C38.3572 38.2023 38.4003 38.1843 38.4322 38.1524C38.464 38.1206 38.482 38.0774 38.4821 38.0324ZM3.60678 38.2023H28.1544C28.1551 38.2023 28.1558 38.202 28.1564 38.2015C28.1569 38.201 28.1572 38.2003 28.1572 38.1995V36.359C28.1572 36.3574 28.1559 36.3562 28.1544 36.3562H3.56467C3.24233 36.3562 2.96006 36.1078 2.95178 35.7856C2.94973 35.7074 2.96336 35.6296 2.99187 35.5567C3.02038 35.4839 3.06319 35.4174 3.11778 35.3614C3.17237 35.3054 3.23763 35.2608 3.30972 35.2304C3.3818 35.2 3.45925 35.1843 3.53748 35.1843H28.1544C28.1551 35.1843 28.1558 35.184 28.1564 35.1835C28.1569 35.1829 28.1572 35.1822 28.1572 35.1815V33.3409C28.1572 33.3394 28.1559 33.3381 28.1544 33.3381H14.7901C14.4677 33.3381 14.1855 33.0898 14.1772 32.7676C14.1751 32.6894 14.1887 32.6115 14.2173 32.5387C14.2458 32.4658 14.2886 32.3994 14.3432 32.3434C14.3978 32.2873 14.463 32.2428 14.5351 32.2123C14.6072 32.1819 14.6846 32.1663 14.7629 32.1662H18.3268C18.3275 32.1662 18.3282 32.166 18.3288 32.1654C18.3293 32.1649 18.3296 32.1642 18.3296 32.1634L18.3351 29.6605V29.6069L18.3351 29.6057L18.3351 29.6044L18.3485 26.5287C18.3485 26.382 18.3522 26.2578 18.3551 26.158C18.3561 26.1247 18.3572 26.09 18.3579 26.0569C18.3587 26.0215 18.3501 25.9866 18.333 25.9556C18.316 25.9246 18.2911 25.8986 18.2608 25.8803C18.1875 25.8363 18.1134 25.7936 18.0386 25.7523L16.6782 24.9922C16.6779 24.992 16.6775 24.9919 16.6771 24.9918C16.6767 24.9918 16.6763 24.9918 16.676 24.992C16.6756 24.9921 16.6753 24.9923 16.675 24.9925C16.6747 24.9928 16.6744 24.9931 16.6743 24.9934L15.7051 26.9998C15.5028 27.4144 15.2131 27.8333 14.4683 28.0895L9.25827 29.8803C9.25702 29.8807 9.25623 29.8819 9.25639 29.8832C9.32686 30.515 9.26569 31.4328 8.95319 32.1624C8.95301 32.1628 8.95293 32.1633 8.95297 32.1637C8.95301 32.1642 8.95316 32.1646 8.95341 32.165C8.95365 32.1654 8.95399 32.1657 8.95439 32.1659C8.95479 32.1661 8.95523 32.1662 8.95569 32.1662H11.9563C12.2787 32.1662 12.5609 32.4146 12.5692 32.7368C12.5713 32.815 12.5576 32.8928 12.5291 32.9657C12.5006 33.0386 12.4578 33.105 12.4032 33.161C12.3486 33.2171 12.2834 33.2616 12.2113 33.292C12.1392 33.3224 12.0617 33.3381 11.9835 33.3381H3.6067C2.26413 33.3381 1.17186 34.4291 1.17186 35.7702C1.17194 37.1113 2.2642 38.2023 3.60678 38.2023Z" fill="#FD3D0C"/>
<path d="M33.9974 34.4411H35.1656C35.4879 34.4411 35.7702 34.6894 35.7785 35.0116C35.7805 35.0898 35.7669 35.1677 35.7384 35.2405C35.7099 35.3134 35.6671 35.3798 35.6125 35.4358C35.5579 35.4919 35.4926 35.5364 35.4206 35.5668C35.3485 35.5973 35.271 35.6129 35.1928 35.6129H34.0245C33.7022 35.6129 33.4199 35.3646 33.4116 35.0424C33.4096 34.9642 33.4232 34.8863 33.4517 34.8135C33.4802 34.7406 33.523 34.6742 33.5776 34.6181C33.6322 34.5621 33.6975 34.5176 33.7696 34.4871C33.8417 34.4567 33.9192 34.4411 33.9974 34.4411ZM33.9963 31.6731H35.1667C35.489 31.6731 35.7713 31.9215 35.7796 32.2436C35.7816 32.3219 35.768 32.3997 35.7395 32.4725C35.711 32.5454 35.6682 32.6118 35.6136 32.6679C35.559 32.7239 35.4937 32.7685 35.4216 32.7989C35.3496 32.8293 35.2721 32.845 35.1939 32.845H34.0235C33.7011 32.845 33.4189 32.5966 33.4106 32.2744C33.4085 32.1962 33.4222 32.1184 33.4507 32.0455C33.4792 31.9726 33.522 31.9062 33.5766 31.8502C33.6312 31.7941 33.6964 31.7496 33.7685 31.7192C33.8406 31.6888 33.9181 31.6731 33.9963 31.6731Z" fill="#FD3D0C"/>
</svg>
