<svg width="39" height="40" viewBox="0 0 39 40" fill="none" xmlns="http://www.w3.org/2000/svg">
<path d="M31.1192 13.1028C31.2492 13.2328 31.4192 13.2975 31.5892 13.2975C31.7592 13.2975 31.9295 13.2325 32.0595 13.1028L36.6914 8.47077C38.0184 7.14366 38.0184 4.98389 36.6914 3.6567C35.3642 2.3292 33.2042 2.32975 31.8773 3.6567L31.5892 3.9442L31.3017 3.6567C29.9739 2.32944 27.8148 2.32944 26.4876 3.6567C25.8446 4.29967 25.4902 5.15452 25.4902 6.06358C25.4902 6.97264 25.8445 7.8278 26.4876 8.47053L31.1192 13.1028ZM27.4278 4.59694C27.8325 4.19225 28.3635 3.99053 28.8945 3.99053C29.4255 3.99053 29.9571 4.19256 30.3615 4.59694L31.1193 5.35499C31.244 5.47951 31.413 5.54952 31.5892 5.54967C31.7656 5.54961 31.9347 5.47959 32.0595 5.35499L32.8175 4.59694C33.6269 3.78733 34.9425 3.78819 35.7512 4.59694C36.5599 5.40561 36.5599 6.72194 35.7512 7.53053L31.5892 11.6923L27.4278 7.53053C27.0359 7.13874 26.8199 6.61749 26.8199 6.06389C26.8202 5.50967 27.0359 4.9885 27.4278 4.59694Z" fill="#FD3D0C"/>
<path d="M37.8241 38.5666C32.1408 39.1971 27.6337 36.6807 27.5885 36.6553C27.5128 36.612 27.4293 36.5841 27.3428 36.5731C27.2563 36.5621 27.1685 36.5683 27.0844 36.5913C27.0127 36.6104 19.8639 38.5267 14.1062 37.2486C10.5166 36.4505 7.13101 33.9221 4.65883 32.0761C4.3268 31.8283 4.01211 31.5931 3.71672 31.3773C3.31328 31.0822 2.6718 30.8368 2.10633 30.6201C1.85242 30.5231 1.50453 30.3897 1.42977 30.3431C1.36508 30.2924 1.32969 30.2179 1.32969 30.1328V28.5917C1.36172 27.3721 6.47461 8.60785 7.26742 6.22074C7.28695 6.19262 7.36328 6.13746 7.41945 6.1109L17.5378 1.48933L20.809 5.74801C20.9705 5.96863 20.9552 6.27722 20.7733 6.48082L17.5409 10.1044C17.3294 10.3418 16.9733 10.3678 16.7523 10.1832L15.4453 8.97801C15.292 8.83699 15.0742 8.79035 14.87 8.82785C14.6652 8.86449 14.4821 9.01035 14.3875 9.1959C14.2783 9.41105 13.2886 9.67472 12.2791 9.68238L11.9501 9.6491C11.6864 9.61762 11.4306 9.75535 11.3019 9.98754C11.2387 10.1012 11.2102 10.2309 11.2199 10.3606C11.2297 10.4903 11.2773 10.6143 11.3568 10.7172C11.5674 10.989 11.7752 11.2628 11.9802 11.5387L12.6273 22.5364C12.2262 24.0982 11.8588 24.542 11.7676 24.6307C11.498 24.7159 11.3025 24.9677 11.3025 25.265C11.3025 25.6321 11.6003 25.9299 11.9675 25.9299C12.7216 25.9299 13.3624 24.939 13.877 23.0045C19.1653 19.0476 23.7805 22.782 24.1424 23.0893C25.8221 24.7751 25.9262 25.8948 25.9295 25.9446C25.9335 26.1183 26.0053 26.2836 26.1295 26.4051C26.2538 26.5266 26.4207 26.5946 26.5945 26.5946C26.9617 26.5946 27.2595 26.2971 27.2595 25.9299C27.2595 25.777 27.204 24.465 25.4831 22.5696C27.106 20.5743 28.9538 19.4251 30.9891 19.1749C34.498 18.7427 37.4475 21.1023 37.4771 21.1258C37.5448 21.181 37.6226 21.2222 37.7062 21.2473C37.7898 21.2724 37.8775 21.2807 37.9644 21.2719C38.0512 21.263 38.1354 21.2372 38.2123 21.1958C38.2891 21.1544 38.357 21.0982 38.4122 21.0306C38.5236 20.8942 38.5763 20.7192 38.5587 20.544C38.5411 20.3688 38.4547 20.2077 38.3184 20.0962C38.1812 19.9842 34.9161 17.3575 30.8402 17.8534C28.4577 18.1425 26.319 19.4309 24.4754 21.6861C22.9791 20.6687 18.689 18.3658 13.891 21.3775L13.2959 11.2638C13.2896 11.1546 13.2564 11.0487 13.1991 10.9555C13.7942 10.885 14.5029 10.7297 15.0168 10.3916L15.8734 11.1811C16.6709 11.8503 17.8387 11.767 18.5327 10.99L21.7652 7.36605C22.3615 6.69808 22.4112 5.68793 21.8732 4.95121L18.2697 0.259803C18.1781 0.140537 18.0487 0.0558611 17.9028 0.019606C17.7568 -0.0166492 17.6029 -0.00234109 17.4661 0.0601933L6.875 4.89769C6.76422 4.94629 6.20234 5.21816 6.01773 5.77355C5.64117 6.9041 0 27.0221 0 28.5895V30.1331C0 30.6284 0.2225 31.0864 0.609766 31.3901C0.803516 31.5418 1.09312 31.6565 1.63117 31.8622C2.07062 32.0307 2.67211 32.2605 2.9318 32.4506C3.22422 32.6643 3.53492 32.8964 3.8632 33.1418C6.43195 35.0602 9.94961 37.6871 13.818 38.5468C19.3249 39.7706 25.7895 38.2911 27.175 37.9419C28.1003 38.4201 31.4951 40 35.9393 40C36.5952 40 37.2741 39.9658 37.9709 39.888C38.3359 39.8478 38.5986 39.5188 38.5584 39.1541C38.5174 38.7885 38.1876 38.5236 37.8241 38.5666Z" fill="#FD3D0C"/>
<path d="M34.5693 30.5105C34.5512 30.3479 34.4737 30.1976 34.3518 30.0885C34.2299 29.9794 34.072 29.9191 33.9083 29.9191C33.732 29.9192 33.5628 29.9892 33.4381 30.1139C33.3134 30.2386 33.2434 30.4078 33.2433 30.5841C33.2433 31.0281 33.5714 32.5318 37.7882 33.2342C37.8252 33.2404 37.8621 33.2434 37.8982 33.2434C38.2174 33.2434 38.499 33.0129 38.5533 32.6879C38.5822 32.514 38.5408 32.3357 38.4383 32.1922C38.3359 32.0487 38.1807 31.9517 38.0068 31.9226C35.0579 31.4312 34.6086 30.599 34.5693 30.5105ZM21.8017 33.923C13.0935 35.7883 9.36699 29.8301 9.21285 29.5758C9.0227 29.2617 8.61527 29.1608 8.30129 29.3494C8.22642 29.3943 8.16113 29.4535 8.10915 29.5237C8.05717 29.5938 8.01952 29.6735 7.99835 29.7582C7.97718 29.8429 7.97291 29.931 7.98577 30.0173C7.99863 30.1037 8.02838 30.1867 8.07332 30.2615C8.11723 30.3344 9.17527 32.0712 11.4375 33.5507C12.9964 34.5697 15.3735 35.6079 18.5885 35.6079C19.6593 35.6079 20.8229 35.4929 22.08 35.2237C22.4392 35.1468 22.668 34.7931 22.5911 34.4342C22.5139 34.0753 22.1608 33.8455 21.8017 33.923Z" fill="#FD3D0C"/>
</svg>
