<svg width="40" height="40" viewBox="0 0 40 40" fill="none" xmlns="http://www.w3.org/2000/svg">
<g clip-path="url(#clip0_30_95)">
<path d="M38 3.33333H37.3333V2C37.3333 1.46957 37.1226 0.960859 36.7475 0.585786C36.3725 0.210714 35.8638 0 35.3333 0L34.6667 0C34.1362 0 33.6275 0.210714 33.2525 0.585786C32.8774 0.960859 32.6667 1.46957 32.6667 2V3.33333H7.33333V2C7.33333 1.46957 7.12262 0.960859 6.74755 0.585786C6.37247 0.210714 5.86377 0 5.33333 0L4.66667 0C4.13623 0 3.62753 0.210714 3.25245 0.585786C2.87738 0.960859 2.66667 1.46957 2.66667 2V3.33333H2C1.46957 3.33333 0.960859 3.54405 0.585786 3.91912C0.210714 4.29419 0 4.8029 0 5.33333C0 5.86377 0.210714 6.37247 0.585786 6.74755C0.960859 7.12262 1.46957 7.33333 2 7.33333H2.66667V8.66667C2.66667 9.1971 2.87738 9.70581 3.25245 10.0809C3.62753 10.456 4.13623 10.6667 4.66667 10.6667H5.33333C5.86377 10.6667 6.37247 10.456 6.74755 10.0809C7.12262 9.70581 7.33333 9.1971 7.33333 8.66667V7.33333H9.21C9.00425 7.76342 8.93716 8.2468 9.018 8.71667L10.024 14.4147C10.2417 15.6613 10.7675 16.8338 11.5537 17.8255C12.3398 18.8173 13.3613 19.5968 14.5253 20.0933C14.7652 20.1962 14.9697 20.3672 15.1133 20.5851C15.2569 20.803 15.3334 21.0583 15.3333 21.3193V25.3673C15.3332 25.6252 15.2584 25.8775 15.1178 26.0937C14.9772 26.3099 14.777 26.4806 14.5413 26.5853L11.622 27.8833C10.9396 28.1863 10.3399 28.6487 9.87323 29.2315C9.40654 29.8143 9.08651 30.5006 8.94 31.2327L7.816 36.8567C7.67933 37.54 7.81968 38.2495 8.20619 38.8293C8.59271 39.4091 9.19371 39.8117 9.877 39.9483C10.5603 40.085 11.2699 39.9446 11.8497 39.5581C12.4295 39.1716 12.832 38.5706 12.9687 37.8873L13.7747 33.8593C13.8179 33.6418 13.9148 33.4386 14.0566 33.2681C14.1984 33.0977 14.3807 32.9654 14.5867 32.8833L20 30.718L25.4127 32.8833C25.6189 32.9653 25.8014 33.0976 25.9433 33.2682C26.0853 33.4388 26.1822 33.6423 26.2253 33.86L27.0313 37.8867C27.0975 38.2264 27.2302 38.5497 27.4217 38.8379C27.6132 39.1262 27.8598 39.3738 28.1473 39.5665C28.4348 39.7592 28.7575 39.8932 29.0969 39.9609C29.4363 40.0285 29.7858 40.0283 30.1252 39.9605C30.4646 39.8927 30.7872 39.7584 31.0745 39.5655C31.3619 39.3726 31.6083 39.1249 31.7996 38.8364C31.9909 38.548 32.1234 38.2247 32.1893 37.8849C32.2553 37.5452 32.2535 37.1957 32.184 36.8567L31.06 31.2327C30.9136 30.5006 30.5936 29.8144 30.1271 29.2316C29.6605 28.6488 29.0609 28.1864 28.3787 27.8833L25.4587 26.5853C25.223 26.4806 25.0228 26.3099 24.8822 26.0937C24.7416 25.8775 24.6668 25.6252 24.6667 25.3673V21.3193C24.6666 21.0583 24.7431 20.803 24.8867 20.5851C25.0303 20.3672 25.2348 20.1962 25.4747 20.0933C26.6387 19.5968 27.6602 18.8173 28.4463 17.8255C29.2325 16.8338 29.7583 15.6613 29.976 14.4147L30.982 8.71667C31.0628 8.2468 30.9958 7.76342 30.79 7.33333H32.6667V8.66667C32.6667 9.1971 32.8774 9.70581 33.2525 10.0809C33.6275 10.456 34.1362 10.6667 34.6667 10.6667H35.3333C35.8638 10.6667 36.3725 10.456 36.7475 10.0809C37.1226 9.70581 37.3333 9.1971 37.3333 8.66667V7.33333H38C38.5304 7.33333 39.0391 7.12262 39.4142 6.74755C39.7893 6.37247 40 5.86377 40 5.33333C40 4.8029 39.7893 4.29419 39.4142 3.91912C39.0391 3.54405 38.5304 3.33333 38 3.33333ZM2 6C1.82319 6 1.65362 5.92976 1.5286 5.80474C1.40357 5.67971 1.33333 5.51014 1.33333 5.33333C1.33333 5.15652 1.40357 4.98695 1.5286 4.86193C1.65362 4.7369 1.82319 4.66667 2 4.66667H2.66667V6H2ZM6 8.66667C6 8.84348 5.92976 9.01305 5.80474 9.13807C5.67971 9.26309 5.51014 9.33333 5.33333 9.33333H4.66667C4.48986 9.33333 4.32029 9.26309 4.19526 9.13807C4.07024 9.01305 4 8.84348 4 8.66667V2C4 1.82319 4.07024 1.65362 4.19526 1.5286C4.32029 1.40357 4.48986 1.33333 4.66667 1.33333H5.33333C5.51014 1.33333 5.67971 1.40357 5.80474 1.5286C5.92976 1.65362 6 1.82319 6 2V8.66667ZM29.4547 7.68333C29.5464 7.79306 29.6132 7.92148 29.6503 8.05965C29.6874 8.19781 29.6939 8.3424 29.6693 8.48333L28.6667 14.1827C28.487 15.2111 28.0532 16.1784 27.4047 16.9967C26.7562 17.8149 25.9136 18.4582 24.9533 18.868C24.4726 19.0726 24.0627 19.4141 23.7746 19.85C23.4865 20.2859 23.3331 20.7969 23.3333 21.3193V25.3673C23.3338 25.883 23.4835 26.3875 23.7645 26.8199C24.0455 27.2523 24.4456 27.5941 24.9167 27.804L27.838 29.102C28.325 29.3188 28.7529 29.6491 29.0861 30.0653C29.4192 30.4815 29.6478 30.9714 29.7527 31.494L30.8767 37.1187C30.9439 37.4552 30.8746 37.8047 30.6841 38.0902C30.4936 38.3757 30.1976 38.5738 29.861 38.641C29.5244 38.7082 29.175 38.6389 28.8895 38.4485C28.604 38.258 28.4059 37.9619 28.3387 37.6253L27.5333 33.6C27.4472 33.1646 27.2534 32.7578 26.9696 32.4166C26.6858 32.0754 26.321 31.8107 25.9087 31.6467L20.248 29.38C20.0892 29.3166 19.9121 29.3166 19.7533 29.38L14.092 31.6467C13.6795 31.8107 13.3147 32.0753 13.0308 32.4165C12.7469 32.7577 12.5529 33.1646 12.4667 33.6L11.6607 37.628C11.6274 37.7946 11.5615 37.9531 11.467 38.0943C11.3724 38.2355 11.251 38.3567 11.1096 38.451C10.9682 38.5453 10.8096 38.6108 10.6429 38.6438C10.4762 38.6768 10.3046 38.6766 10.138 38.6433C9.97135 38.61 9.8129 38.5442 9.67168 38.4497C9.53047 38.3551 9.40926 38.2337 9.31498 38.0923C9.2207 37.9509 9.15519 37.7923 9.12219 37.6256C9.08919 37.4589 9.08935 37.2873 9.12267 37.1207L10.2467 31.496C10.3513 30.9732 10.5799 30.4831 10.9132 30.0669C11.2464 29.6506 11.6747 29.3204 12.162 29.104L15.0827 27.806C15.5541 27.5961 15.9547 27.254 16.2358 26.8212C16.5169 26.3884 16.6666 25.8834 16.6667 25.3673V21.3193C16.6675 20.797 16.5146 20.286 16.2272 19.8499C15.9397 19.4138 15.5303 19.0719 15.05 18.8667C14.0897 18.4568 13.2471 17.8136 12.5986 16.9954C11.9501 16.1771 11.5163 15.2098 11.3367 14.1813L10.3333 8.48533C10.3103 8.35839 10.3125 8.22815 10.3398 8.10206C10.3671 7.97597 10.419 7.85649 10.4925 7.75044C10.6409 7.53628 10.8683 7.38983 11.1247 7.34333C11.381 7.29683 11.6454 7.35408 11.8596 7.50248C12.0737 7.65089 12.2202 7.87829 12.2667 8.13467L13.3473 13.9427C13.4895 14.7071 13.8944 15.3979 14.492 15.8953C15.0897 16.3928 15.8424 16.6656 16.62 16.6667H23.38C24.1584 16.6667 24.9122 16.3943 25.5108 15.8968C26.1094 15.3993 26.515 14.7079 26.6573 13.9427L27.738 8.13333C27.7722 7.95058 27.8577 7.7813 27.9843 7.64519C28.111 7.50907 28.2737 7.41172 28.4535 7.36444C28.6333 7.31716 28.8229 7.32191 29.0001 7.37812C29.1773 7.43434 29.335 7.53972 29.4547 7.682V7.68333ZM23.2593 7.33333H26.6153C26.5288 7.51044 26.4657 7.698 26.4273 7.89133L25.3467 13.6993C25.2612 14.1585 25.0178 14.5732 24.6586 14.8717C24.2993 15.1701 23.847 15.3334 23.38 15.3333H23.2593C23.7048 14.9 24.0589 14.3817 24.3006 13.8092C24.5423 13.2367 24.6668 12.6215 24.6667 12V10.6667C24.6668 10.0452 24.5423 9.43 24.3006 8.85746C24.0589 8.28492 23.7048 7.76666 23.2593 7.33333ZM23.3333 10.6667V12C23.3333 12.8841 22.9821 13.7319 22.357 14.357C21.7319 14.9821 20.8841 15.3333 20 15.3333C19.1159 15.3333 18.2681 14.9821 17.643 14.357C17.0179 13.7319 16.6667 12.8841 16.6667 12V10.6667C16.6667 9.78261 17.0179 8.93476 17.643 8.30964C18.2681 7.68452 19.1159 7.33333 20 7.33333C20.8841 7.33333 21.7319 7.68452 22.357 8.30964C22.9821 8.93476 23.3333 9.78261 23.3333 10.6667ZM15.3333 10.6667V12C15.3332 12.6215 15.4577 13.2367 15.6994 13.8092C15.9411 14.3817 16.2952 14.9 16.7407 15.3333H16.62C16.153 15.3334 15.7007 15.1701 15.3414 14.8717C14.9822 14.5732 14.7388 14.1585 14.6533 13.6993L13.5727 7.89133C13.5343 7.698 13.4712 7.51044 13.3847 7.33333H16.7407C16.2952 7.76666 15.9411 8.28492 15.6994 8.85746C15.4577 9.43 15.3332 10.0452 15.3333 10.6667ZM7.33333 6V4.66667H32.6667V6H7.33333ZM36 8.66667C36 8.84348 35.9298 9.01305 35.8047 9.13807C35.6797 9.26309 35.5101 9.33333 35.3333 9.33333H34.6667C34.4899 9.33333 34.3203 9.26309 34.1953 9.13807C34.0702 9.01305 34 8.84348 34 8.66667V2C34 1.82319 34.0702 1.65362 34.1953 1.5286C34.3203 1.40357 34.4899 1.33333 34.6667 1.33333H35.3333C35.5101 1.33333 35.6797 1.40357 35.8047 1.5286C35.9298 1.65362 36 1.82319 36 2V8.66667ZM38 6H37.3333V4.66667H38C38.1768 4.66667 38.3464 4.7369 38.4714 4.86193C38.5964 4.98695 38.6667 5.15652 38.6667 5.33333C38.6667 5.51014 38.5964 5.67971 38.4714 5.80474C38.3464 5.92976 38.1768 6 38 6Z" fill="#FD3D0C"/>
</g>
<defs>
<clipPath id="clip0_30_95">
<rect width="40" height="40" fill="white"/>
</clipPath>
</defs>
</svg>
