<svg width="17" height="16" viewBox="0 0 17 16" fill="none" xmlns="http://www.w3.org/2000/svg">
<path d="M8.346 3.87866C10.5608 3.87866 12.389 5.70679 12.389 7.92163C12.389 10.1716 10.5608 11.9646 8.346 11.9646C6.096 11.9646 4.30303 10.1716 4.30303 7.92163C4.30303 5.70679 6.096 3.87866 8.346 3.87866ZM8.346 10.5583C9.7874 10.5583 10.9476 9.39819 10.9476 7.92163C10.9476 6.48022 9.7874 5.32007 8.346 5.32007C6.86943 5.32007 5.70928 6.48022 5.70928 7.92163C5.70928 9.39819 6.90459 10.5583 8.346 10.5583ZM13.4788 3.73804C13.4788 4.26538 13.0569 4.68726 12.5296 4.68726C12.0022 4.68726 11.5804 4.26538 11.5804 3.73804C11.5804 3.21069 12.0022 2.78882 12.5296 2.78882C13.0569 2.78882 13.4788 3.21069 13.4788 3.73804ZM16.1507 4.68726C16.221 5.98804 16.221 9.89038 16.1507 11.1912C16.0804 12.4568 15.7991 13.5466 14.8851 14.4958C13.971 15.4099 12.846 15.6912 11.5804 15.7615C10.2796 15.8318 6.37725 15.8318 5.07646 15.7615C3.81084 15.6912 2.721 15.4099 1.77178 14.4958C0.857715 13.5466 0.576465 12.4568 0.506152 11.1912C0.43584 9.89038 0.43584 5.98804 0.506152 4.68726C0.576465 3.42163 0.857715 2.29663 1.77178 1.38257C2.721 0.468506 3.81084 0.187256 5.07646 0.116943C6.37725 0.0466309 10.2796 0.0466309 11.5804 0.116943C12.846 0.187256 13.971 0.468506 14.8851 1.38257C15.7991 2.29663 16.0804 3.42163 16.1507 4.68726ZM14.4632 12.5623C14.8851 11.5427 14.7796 9.08179 14.7796 7.92163C14.7796 6.79663 14.8851 4.33569 14.4632 3.28101C14.1819 2.61304 13.6546 2.05054 12.9866 1.80444C11.9319 1.38257 9.471 1.48804 8.346 1.48804C7.18584 1.48804 4.7249 1.38257 3.70537 1.80444C3.00225 2.08569 2.4749 2.61304 2.19365 3.28101C1.77178 4.33569 1.87725 6.79663 1.87725 7.92163C1.87725 9.08179 1.77178 11.5427 2.19365 12.5623C2.4749 13.2654 3.00225 13.7927 3.70537 14.074C4.7249 14.4958 7.18584 14.3904 8.346 14.3904C9.471 14.3904 11.9319 14.4958 12.9866 14.074C13.6546 13.7927 14.2171 13.2654 14.4632 12.5623Z" fill="white"/>
</svg>
