<svg width="25" height="25" viewBox="0 0 25 25" fill="none" xmlns="http://www.w3.org/2000/svg">
<path d="M12.6782 0.389648C6.06168 0.389648 0.678223 5.77311 0.678223 12.3896C0.678223 19.0062 6.06168 24.3896 12.6782 24.3896C19.2948 24.3896 24.6782 19.0062 24.6782 12.3896C24.6782 5.77311 19.2948 0.389648 12.6782 0.389648ZM19.385 9.23175L11.7158 16.8408C11.2647 17.2919 10.5429 17.322 10.0617 16.8708L6.00153 13.1716C5.52033 12.7205 5.49025 11.9686 5.9113 11.4874C6.36243 11.0062 7.11431 10.9761 7.59552 11.4272L10.8136 14.3746L17.6707 7.51747C18.1519 7.03626 18.9038 7.03626 19.385 7.51747C19.8662 7.99867 19.8662 8.75055 19.385 9.23175Z" fill="#E16242"/>
</svg>
