<svg width="25" height="25" viewBox="0 0 25 25" fill="none" xmlns="http://www.w3.org/2000/svg">
<g clip-path="url(#clip0_0_368)">
<path d="M12.6777 0.389648C6.06119 0.389648 0.677734 5.77311 0.677734 12.3896C0.677734 19.0062 6.06119 24.3896 12.6777 24.3896C19.2943 24.3896 24.6777 19.0062 24.6777 12.3896C24.6777 5.77311 19.2943 0.389648 12.6777 0.389648ZM19.3845 9.23175L11.7153 16.8408C11.2642 17.2919 10.5424 17.322 10.0612 16.8708L6.00104 13.1716C5.51984 12.7205 5.48976 11.9686 5.91082 11.4874C6.36194 11.0062 7.11382 10.9761 7.59503 11.4272L10.8131 14.3746L17.6702 7.51747C18.1514 7.03626 18.9033 7.03626 19.3845 7.51747C19.8657 7.99867 19.8657 8.75055 19.3845 9.23175Z" fill="#252120"/>
</g>
<defs>
<clipPath id="clip0_0_368">
<rect width="24" height="24" fill="white" transform="translate(0.677734 0.389648)"/>
</clipPath>
</defs>
</svg>
