<svg width="17" height="16" viewBox="0 0 17 16" fill="none" xmlns="http://www.w3.org/2000/svg">
<path d="M15.512 9.46851C16.0394 10.1365 16.3558 10.9802 16.3206 11.8591C16.3206 14.0388 14.5628 15.7966 12.3831 15.7966C11.5042 15.7966 10.6604 15.5154 9.99248 14.988C9.50029 15.0935 8.97295 15.1638 8.44561 15.1638C4.47295 15.1638 1.23857 11.9294 1.23857 7.92163C1.23857 7.42944 1.30889 6.9021 1.41436 6.40991C0.887012 5.74194 0.605762 4.89819 0.605762 3.98413C0.605762 1.8396 2.36357 0.0466309 4.54326 0.0466309C5.42217 0.0466309 6.26592 0.363037 6.93389 0.890381C7.42607 0.784912 7.95342 0.7146 8.48076 0.7146C12.4534 0.7146 15.6878 3.94897 15.6878 7.92163C15.6878 8.44897 15.6175 8.97632 15.512 9.46851ZM8.6917 12.7029C10.6253 12.7029 12.6292 11.7185 12.6292 9.64429C12.6292 7.85132 10.8714 7.25366 9.42998 6.93726C7.74248 6.51538 7.0042 6.44507 7.0042 5.7771C7.0042 5.2146 7.5667 4.96851 8.48076 4.96851C10.0979 4.96851 10.1331 6.16382 11.1175 6.16382C11.7854 6.16382 12.1722 5.63647 12.1722 5.03882C12.1722 3.84351 10.2034 3.07007 8.26982 3.07007C6.51201 3.07007 4.43779 3.84351 4.43779 5.95288C4.43779 8.23804 6.40654 8.44897 8.58623 9.01147C9.50029 9.22241 10.0628 9.32788 10.0628 9.99585C10.0628 10.5232 9.46514 10.9099 8.58623 10.9099C6.68779 10.9099 6.58232 9.32788 5.49248 9.32788C4.7542 9.32788 4.43779 9.85522 4.43779 10.4177C4.43779 11.6833 6.37139 12.7029 8.6917 12.7029Z" fill="white"/>
</svg>
