<svg width="21" height="21" viewBox="0 0 21 21" fill="none" xmlns="http://www.w3.org/2000/svg">
<g clip-path="url(#clip0_0_244)">
<path d="M19.6476 7.54295L13.4993 6.60378L10.7435 0.733779C10.5376 0.295446 9.81847 0.295446 9.61263 0.733779L6.85763 6.60378L0.709298 7.54295C0.595779 7.56038 0.48926 7.60877 0.401437 7.68278C0.313614 7.75679 0.247882 7.85357 0.21146 7.96249C0.175038 8.07142 0.169333 8.18827 0.194972 8.30022C0.220611 8.41217 0.276602 8.5149 0.356798 8.59711L4.82346 13.1754L3.76763 19.6479C3.74878 19.7637 3.76288 19.8824 3.80831 19.9905C3.85375 20.0987 3.92869 20.1918 4.02457 20.2594C4.12045 20.3269 4.2334 20.3661 4.3505 20.3725C4.46761 20.3789 4.58415 20.3522 4.6868 20.2954L10.1785 17.2604L15.6701 20.2963C15.7728 20.353 15.8893 20.3797 16.0064 20.3733C16.1235 20.3669 16.2365 20.3277 16.3324 20.2602C16.4282 20.1927 16.5032 20.0995 16.5486 19.9914C16.5941 19.8833 16.6082 19.7645 16.5893 19.6488L15.5335 13.1763L20.0001 8.59795C20.0806 8.51576 20.1368 8.41297 20.1625 8.3009C20.1883 8.18883 20.1827 8.07181 20.1462 7.96274C20.1098 7.85367 20.044 7.75677 19.956 7.6827C19.868 7.60864 19.7613 7.56028 19.6476 7.54295Z" fill="#FD3D0C"/>
</g>
<defs>
<clipPath id="clip0_0_244">
<rect width="20" height="20" fill="white" transform="translate(0.178223 0.389648)"/>
</clipPath>
</defs>
</svg>
