<svg width="19" height="16" viewBox="0 0 19 16" fill="none" xmlns="http://www.w3.org/2000/svg">
<path d="M16.8382 4.26538C16.8382 4.44116 16.8382 4.58179 16.8382 4.75757C16.8382 9.64429 13.1468 15.2341 6.36162 15.2341C4.25225 15.2341 2.31865 14.6365 0.701466 13.5818C0.982716 13.6169 1.26397 13.6521 1.58037 13.6521C3.30303 13.6521 4.88506 13.0544 6.15068 12.0701C4.5335 12.0349 3.1624 10.9802 2.70537 9.50366C2.95147 9.53882 3.1624 9.57397 3.4085 9.57397C3.7249 9.57397 4.07647 9.50366 4.35772 9.43335C2.67022 9.08179 1.40459 7.60522 1.40459 5.81226V5.7771C1.89678 6.05835 2.49443 6.19897 3.09209 6.23413C2.07256 5.56616 1.43975 4.44116 1.43975 3.17554C1.43975 2.47241 1.61553 1.8396 1.93193 1.31226C3.76006 3.5271 6.50225 5.00366 9.56084 5.17944C9.49053 4.89819 9.45537 4.61694 9.45537 4.33569C9.45537 2.29663 11.1077 0.644287 13.1468 0.644287C14.2015 0.644287 15.1507 1.06616 15.8538 1.80444C16.6624 1.62866 17.471 1.31226 18.1741 0.890381C17.8929 1.76929 17.3304 2.47241 16.5569 2.92944C17.2952 2.85913 18.0335 2.64819 18.6663 2.36694C18.1741 3.10522 17.5413 3.73804 16.8382 4.26538Z" fill="white"/>
</svg>
